<?xml version="1.0" encoding="UTF-8"?>
<!DOCTYPE svg PUBLIC "-//W3C//DTD SVG 1.1//EN" "http://www.w3.org/Graphics/SVG/1.1/DTD/svg11.dtd">
<svg xmlns="http://www.w3.org/2000/svg" version="1.1" width="828px" height="624px" style="shape-rendering:geometricPrecision; text-rendering:geometricPrecision; image-rendering:optimizeQuality; fill-rule:evenodd; clip-rule:evenodd" xmlns:xlink="http://www.w3.org/1999/xlink">
<g><path style="opacity:0.885" fill="#ec603d" d="M 53.5,60.5 C 56.475,60.7134 59.1416,61.7134 61.5,63.5C 74.8284,77.6616 88.6617,91.3283 103,104.5C 117.821,90.6793 132.321,76.5126 146.5,62C 152.65,59.0748 156.317,60.9081 157.5,67.5C 157.321,70.1914 156.321,72.5247 154.5,74.5C 146.708,81.8268 139.208,89.4935 132,97.5C 124.282,104.595 116.782,111.929 109.5,119.5C 106.174,122.666 102.507,123.166 98.5,121C 82.9216,105.274 67.2549,89.7741 51.5,74.5C 47.1432,68.9734 47.8099,64.3068 53.5,60.5 Z"/></g>
<g><path style="opacity:0.9" fill="#ec603d" d="M 223.5,60.5 C 249.243,59.6111 267.743,70.6111 279,93.5C 280.313,97.4204 281.313,101.42 282,105.5C 282.667,126.167 282.667,146.833 282,167.5C 276.226,191.943 261.059,206.443 236.5,211C 202.33,214.472 181.164,199.638 173,166.5C 172.333,146.5 172.333,126.5 173,106.5C 177.045,83.4603 190.212,68.6269 212.5,62C 216.356,61.8227 220.023,61.3227 223.5,60.5 Z M 227.5,74.5 C 241.313,74.3233 252.479,79.6566 261,90.5C 263.804,94.4432 265.804,98.7766 267,103.5C 268.576,123.133 268.91,142.8 268,162.5C 264.892,181.196 254.059,192.696 235.5,197C 209.739,199.554 193.572,188.387 187,163.5C 186.333,144.833 186.333,126.167 187,107.5C 192.651,86.621 206.151,75.621 227.5,74.5 Z"/></g>
<g><path style="opacity:0.895" fill="#ec603d" d="M 302.5,60.5 C 306.493,60.2447 309.326,61.9114 311,65.5C 311.171,97.0716 311.671,128.572 312.5,160C 312.043,160.414 311.709,160.914 311.5,161.5C 319.049,189.72 337.049,200.887 365.5,195C 384.672,186.978 393.672,172.645 392.5,152C 393.329,122.572 393.829,93.0718 394,63.5C 397.96,59.6497 401.96,59.6497 406,63.5C 407.138,80.1161 407.638,96.7828 407.5,113.5C 407.594,132.191 407.094,150.858 406,169.5C 396.014,200.113 374.848,213.946 342.5,211C 318.4,205.566 303.566,190.733 298,166.5C 297.826,134.458 297.326,102.458 296.5,70.5C 296.672,65.8919 298.672,62.5586 302.5,60.5 Z"/></g>
<g><path style="opacity:0.889" fill="#ec603d" d="M 428.5,60.5 C 430.086,61.1481 431.753,61.6481 433.5,62C 460.974,89.8071 488.807,117.307 517,144.5C 517.333,118.167 517.667,91.8333 518,65.5C 519.59,62.2493 522.257,60.5826 526,60.5C 528.741,61.7378 530.574,63.7378 531.5,66.5C 531.198,112.03 531.531,157.53 532.5,203C 530.82,210.893 526.487,213.06 519.5,209.5C 506.431,195.597 492.931,182.264 479,169.5C 476.333,166.167 473.667,162.833 471,159.5C 469.412,152.377 472.246,149.211 479.5,150C 492.038,161.706 504.371,173.54 516.5,185.5C 517.664,179.193 517.831,172.859 517,166.5C 491.027,140.438 465.193,114.272 439.5,88C 438.552,87.5172 437.552,87.3505 436.5,87.5C 436.667,126.168 436.5,164.835 436,203.5C 435.401,209.219 432.234,211.719 426.5,211C 425,210.167 423.833,209 423,207.5C 421.353,160.546 421.02,113.546 422,66.5C 422.796,62.8656 424.963,60.8656 428.5,60.5 Z"/></g>
<g><path style="opacity:0.878" fill="#ec603d" d="M 553.5,60.5 C 588.502,60.3333 623.502,60.5 658.5,61C 665.167,65.3333 665.167,69.6667 658.5,74C 630.5,74.3333 602.5,74.6667 574.5,75C 574.167,75.3333 573.833,75.6667 573.5,76C 574.975,78.3092 576.642,80.4759 578.5,82.5C 588.794,91.9619 598.628,101.962 608,112.5C 609.132,118.232 606.799,121.565 601,122.5C 597.645,121.479 594.811,119.645 592.5,117C 577.694,102.194 562.86,87.3604 548,72.5C 545.288,66.2622 547.122,62.2622 553.5,60.5 Z"/></g>
<g><path style="opacity:0.885" fill="#ec603d" d="M 715.5,60.5 C 742.896,59.079 762.396,70.7457 774,95.5C 775.655,101.407 776.822,107.407 777.5,113.5C 777.121,120.847 773.455,123.513 766.5,121.5C 765.115,120.449 764.115,119.116 763.5,117.5C 761.507,92.0089 747.84,77.6756 722.5,74.5C 702.992,76.1688 689.825,86.1688 683,104.5C 682.333,106.167 682.333,107.833 683,109.5C 697.665,125.165 712.665,140.498 728,155.5C 729.723,166.246 725.556,169.079 715.5,164C 700,148.5 684.5,133 669,117.5C 667.978,115.298 667.478,112.965 667.5,110.5C 669.824,90.3669 679.824,75.5336 697.5,66C 703.412,63.4146 709.412,61.5812 715.5,60.5 Z"/></g>
<g><path style="opacity:0.809" fill="#ec603d" d="M 721.5,105.5 C 723.472,106.451 725.472,107.451 727.5,108.5C 743.14,124.14 758.806,139.806 774.5,155.5C 775.174,180.019 764.174,197.186 741.5,207C 709.769,215.707 686.602,205.54 672,176.5C 668.966,169.089 667.966,161.422 669,153.5C 671.892,151.327 675.059,150.994 678.5,152.5C 680.08,158.779 681.58,165.113 683,171.5C 693.25,192.876 710.084,201.376 733.5,197C 750.497,191.442 760.331,179.942 763,162.5C 748.696,147.195 734.029,132.195 719,117.5C 715.196,112.343 716.03,108.343 721.5,105.5 Z"/></g>
<g><path style="opacity:0.811" fill="#ec603d" d="M 53.5,109.5 C 56.1871,109.341 58.5204,110.175 60.5,112C 71.5025,122.669 82.1692,133.669 92.5,145C 96.0343,147.875 99.5343,150.709 103,153.5C 117.872,140.293 132.039,126.46 145.5,112C 153.077,107.577 156.577,109.743 156,118.5C 140.947,134.552 125.614,150.218 110,165.5C 109.546,179.51 108.88,193.51 108,207.5C 104.882,210.758 101.549,210.758 98,207.5C 97.654,205.782 97.154,204.115 96.5,202.5C 96.5687,195.43 96.9021,188.264 97.5,181C 97.5056,175.778 97.0056,170.611 96,165.5C 81.6272,149.961 66.7939,134.961 51.5,120.5C 48.4085,116.04 49.0752,112.374 53.5,109.5 Z"/></g>
<g><path style="opacity:0.831" fill="#ec603d" d="M 550.5,109.5 C 552.989,109.298 555.323,109.798 557.5,111C 574,127.5 590.5,144 607,160.5C 608.173,164.305 607.007,167.139 603.5,169C 589.167,169.333 574.833,169.667 560.5,170C 559.167,179.333 559.167,188.667 560.5,198C 590.5,198.333 620.5,198.667 650.5,199C 657.167,202.667 657.167,206.333 650.5,210C 616.773,210.979 583.106,210.646 549.5,209C 549,208.5 548.5,208 548,207.5C 547.333,191.833 547.333,176.167 548,160.5C 548.903,159.299 550.069,158.465 551.5,158C 562.833,157.667 574.167,157.333 585.5,157C 573.696,144.196 561.53,131.696 549,119.5C 546.925,115.794 547.425,112.461 550.5,109.5 Z"/></g>
<g><path style="opacity:0.931" fill="#202936" d="M 57.5,243.5 C 116.501,243.333 175.501,243.5 234.5,244C 243.402,247.872 245.902,254.372 242,263.5C 184.237,321.263 126.404,379.096 68.5,437C 57.7788,441.536 50.7788,438.202 47.5,427C 48.3339,423.5 49.8339,420.333 52,417.5C 101.167,368.5 150.333,319.5 199.5,270.5C 198.624,269.749 197.624,269.249 196.5,269C 150.167,268.667 103.833,268.333 57.5,268C 51.5469,266.541 48.2136,262.708 47.5,256.5C 48.2406,249.956 51.5739,245.623 57.5,243.5 Z"/></g>
<g><path style="opacity:0.938" fill="#202936" d="M 374.5,243.5 C 382.502,242.671 388.002,246.004 391,253.5C 421.012,340.542 451.345,427.542 482,514.5C 484.332,525.821 479.832,531.321 468.5,531C 465.592,530.311 462.925,529.145 460.5,527.5C 430.125,495.493 399.125,464.16 367.5,433.5C 364.037,419.126 369.704,413.293 384.5,416C 402.36,433.527 420.193,451.027 438,468.5C 419.427,410.452 399.427,352.785 378,295.5C 350.811,372.534 323.644,449.534 296.5,526.5C 288.937,533.489 281.77,533.156 275,525.5C 273.206,521.526 273.206,517.526 275,513.5C 305.837,425.175 336.837,336.842 368,248.5C 370.071,246.563 372.238,244.896 374.5,243.5 Z"/></g>
<g><path style="opacity:0.955" fill="#202936" d="M 522.5,243.5 C 529.041,243.069 533.874,245.736 537,251.5C 537.1,282.186 537.767,312.853 539,343.5C 568.626,372.96 598.126,402.626 627.5,432.5C 632.785,446.056 628.118,452.556 613.5,452C 612.026,450.684 610.359,449.684 608.5,449C 585.333,425.833 562.167,402.667 539,379.5C 537.953,382.039 537.453,384.705 537.5,387.5C 537.767,391.242 538.101,394.742 538.5,398C 537.675,439.804 537.175,481.638 537,523.5C 532.834,531.546 526.668,533.546 518.5,529.5C 515.612,526.891 513.612,523.724 512.5,520C 513.332,430.57 513.832,341.07 514,251.5C 515.764,247.585 518.597,244.919 522.5,243.5 Z"/></g>
<g><path style="opacity:0.924" fill="#212936" d="M 760.5,243.5 C 768.807,242.396 774.307,245.73 777,253.5C 777.667,342.167 777.667,430.833 777,519.5C 775.406,528.742 769.906,532.576 760.5,531C 755.192,529.021 752.692,525.188 753,519.5C 752.333,430.833 752.333,342.167 753,253.5C 753.346,251.782 753.846,250.115 754.5,248.5C 756.465,246.646 758.465,244.979 760.5,243.5 Z"/></g>
<g><path style="opacity:0.912" fill="#202936" d="M 705.5,245.5 C 716.579,244.243 721.913,249.243 721.5,260.5C 721.658,346.716 721.491,433.049 721,519.5C 718.763,529.416 712.93,532.416 703.5,528.5C 701.473,527.307 699.973,525.64 699,523.5C 698.667,498.167 698.333,472.833 698,447.5C 697.781,446.062 697.281,444.729 696.5,443.5C 667.235,413.734 637.735,384.068 608,354.5C 604.291,341.541 609.124,336.041 622.5,338C 647.044,361.72 671.377,385.72 695.5,410C 696.449,410.617 697.282,410.451 698,409.5C 698.333,357.167 698.667,304.833 699,252.5C 700.694,249.642 702.861,247.309 705.5,245.5 Z"/></g>
<g><path style="opacity:0.902" fill="#202936" d="M 229.5,336.5 C 241.893,338.619 245.226,345.286 239.5,356.5C 188.905,406.262 138.905,456.428 89.5,507C 137.833,507.333 186.167,507.667 234.5,508C 242.72,512.221 244.553,518.387 240,526.5C 238.681,528.487 236.848,529.654 234.5,530C 175.5,530.667 116.5,530.667 57.5,530C 49.8335,526.344 47.6669,520.511 51,512.5C 108.86,454.64 166.694,396.806 224.5,339C 226.315,338.243 227.981,337.41 229.5,336.5 Z"/></g>
</svg>
